<svg xmlns="http://www.w3.org/2000/svg" xmlns:xlink="http://www.w3.org/1999/xlink" width="500" zoomAndPan="magnify" viewBox="0 0 375 374.999991" height="500" preserveAspectRatio="xMidYMid meet" version="1.0"><defs><filter x="0%" y="0%" width="100%" height="100%" id="7925a06c30"><feColorMatrix values="0 0 0 0 1 0 0 0 0 1 0 0 0 0 1 0 0 0 1 0" color-interpolation-filters="sRGB"/></filter><mask id="bb8fde7d97"><g filter="url(#7925a06c30)"><rect x="-37.5" width="450" fill="#000000" y="-37.499999" height="449.999989" fill-opacity="0.8"/></g></mask><clipPath id="b0680a1822"><path d="M 7.773438 7.765625 L 164.878906 7.765625 L 164.878906 145.234375 L 7.773438 145.234375 Z M 7.773438 7.765625 " clip-rule="nonzero"/></clipPath><clipPath id="c60c31e873"><path d="M 86.328125 7.765625 L 164.878906 145.234375 L 7.773438 145.234375 Z M 86.328125 7.765625 " clip-rule="nonzero"/></clipPath><clipPath id="9e538d1a11"><path d="M 7.773438 7.765625 L 164.523438 7.765625 L 164.523438 145.015625 L 7.773438 145.015625 Z M 7.773438 7.765625 " clip-rule="nonzero"/></clipPath><clipPath id="b2d7166c8c"><path d="M 86.324219 7.765625 L 164.871094 145.226562 L 7.773438 145.226562 Z M 86.324219 7.765625 " clip-rule="nonzero"/></clipPath><clipPath id="7990846a7d"><rect x="0" width="173" y="0" height="153"/></clipPath><clipPath id="6823822f9f"><path d="M 142.875 191.328125 L 229.769531 191.328125 L 229.769531 254.300781 L 142.875 254.300781 Z M 142.875 191.328125 " clip-rule="nonzero"/></clipPath></defs><g mask="url(#bb8fde7d97)"><g transform="matrix(1, 0, 0, 1, 100, 111)"><g clip-path="url(#7990846a7d)"><g clip-path="url(#b0680a1822)"><g clip-path="url(#c60c31e873)"><path fill="#ffde59" d="M 7.773438 7.765625 L 164.878906 7.765625 L 164.878906 145.234375 L 7.773438 145.234375 Z M 7.773438 7.765625 " fill-opacity="1" fill-rule="nonzero"/></g></g><g clip-path="url(#9e538d1a11)"><g clip-path="url(#b2d7166c8c)"><path stroke-linecap="butt" transform="matrix(0.75, 0, 0, 0.75, 7.77406, 7.765393)" fill="none" stroke-linejoin="miter" d="M 104.733559 0.000309865 L 209.462739 183.281584 L -0.000829977 183.281584 Z M 104.733559 0.000309865 " stroke="#ff3131" stroke-width="4" stroke-opacity="1" stroke-miterlimit="4"/></g></g></g></g></g><g clip-path="url(#6823822f9f)"><path fill="#fff6d3" d="M 184.488281 246.894531 C 186.324219 247.816406 188.167969 248.710938 189.976562 249.566406 L 186.183594 249.566406 C 184.480469 248.726562 182.710938 247.832031 180.925781 246.894531 Z M 176.226562 242.550781 C 177.5 243.261719 178.8125 243.96875 180.140625 244.667969 L 176.796875 244.667969 C 175.550781 243.972656 174.3125 243.265625 173.109375 242.550781 Z M 168.453125 237.875 C 169.671875 238.683594 170.980469 239.5 172.355469 240.324219 L 169.488281 240.324219 C 168.21875 239.503906 167.003906 238.6875 165.882812 237.875 Z M 162.894531 233.640625 C 163.03125 233.769531 163.171875 233.898438 163.324219 234.03125 C 164.042969 234.664062 164.855469 235.316406 165.75 235.980469 L 163.414062 235.980469 C 162.960938 235.609375 162.53125 235.242188 162.128906 234.875 C 161.664062 234.457031 161.253906 234.042969 160.890625 233.640625 Z M 182.164062 216.714844 C 176.617188 218.570312 171.433594 220.480469 167.421875 222.4375 C 161.910156 225.125 158.308594 227.898438 161.46875 232.082031 L 159.707031 232.082031 C 156.925781 227.546875 160.984375 224.339844 166.695312 221.535156 C 170.125 219.847656 174.367188 218.25 178.957031 216.714844 Z M 189.390625 214.375 C 188.222656 214.742188 187.054688 215.117188 185.898438 215.488281 L 182.726562 215.488281 C 183.90625 215.113281 185.105469 214.742188 186.304688 214.375 Z M 196.488281 212.148438 C 195.429688 212.480469 194.363281 212.8125 193.289062 213.152344 L 190.363281 213.152344 C 191.488281 212.8125 192.609375 212.480469 193.726562 212.148438 Z M 202.441406 210.257812 C 201.757812 210.476562 201.066406 210.699219 200.363281 210.921875 L 197.832031 210.921875 C 198.574219 210.699219 199.3125 210.476562 200.039062 210.257812 Z M 208.375 208.25 C 207.648438 208.507812 206.898438 208.769531 206.128906 209.03125 L 203.980469 209.03125 C 204.800781 208.769531 205.601562 208.511719 206.382812 208.25 Z M 213.316406 206.355469 C 212.789062 206.578125 212.238281 206.800781 211.667969 207.023438 L 209.917969 207.023438 C 210.53125 206.800781 211.125 206.578125 211.699219 206.355469 Z M 214.625 205.132812 C 215.105469 204.914062 215.558594 204.695312 215.988281 204.476562 C 231.738281 196.464844 187.386719 193.476562 171.84375 192.578125 C 188.878906 193.152344 233.140625 196.414062 216.148438 205.058594 L 216.003906 205.132812 Z M 224.648438 206.636719 C 245.0625 197.875 184.035156 190.082031 152.703125 191.492188 C 182.476562 192.828125 225.34375 197.863281 207.941406 204.855469 C 187.523438 213.0625 98.53125 225.425781 170.523438 254.300781 L 196.394531 254.300781 C 194.863281 253.644531 192.957031 252.792969 190.820312 251.792969 L 194.773438 251.792969 C 196.769531 252.703125 198.675781 253.546875 200.429688 254.300781 L 229.769531 254.300781 C 136.308594 225.398438 184.558594 223.847656 224.648438 206.636719 " fill-opacity="1" fill-rule="evenodd"/></g></svg>